<svg xmlns="http://www.w3.org/2000/svg" viewBox="0 0 250.58 79.43"><defs><style>.cls-1{fill:#fff;}</style></defs><g id="Layer_2" data-name="Layer 2"><g id="Layer_1-2" data-name="Layer 1"><path class="cls-1" d="M106.86,31.55a8.81,8.81,0,0,0,1.24-4.69A9.71,9.71,0,0,0,107,22.13a8.17,8.17,0,0,0-3.19-3.22,9.32,9.32,0,0,0-4.65-1.15H86.63V45.61H92.7V35.93h4.59l6.11,9.68h7l-6.92-11.08A7.34,7.34,0,0,0,106.86,31.55Zm-6-2.08a3.06,3.06,0,0,1-2.37.93H92.7V23.71h5.76a3.06,3.06,0,0,1,2.37.93,3.5,3.5,0,0,1,.85,2.45A3.39,3.39,0,0,1,100.83,29.47Z"/><polygon class="cls-1" points="113.63 45.61 132.11 45.61 132.11 39.94 119.74 39.94 119.74 34.1 131.37 34.1 131.37 29.23 119.74 29.23 119.74 23.4 132.11 23.4 132.11 17.76 113.63 17.76 113.63 45.61"/><polygon class="cls-1" points="146.85 36.86 140.98 17.76 133.78 17.76 143.86 45.61 149.85 45.61 159.93 17.76 152.77 17.76 146.85 36.86"/><polygon class="cls-1" points="162.18 45.61 180.66 45.61 180.66 39.94 168.29 39.94 168.29 34.1 179.93 34.1 179.93 29.23 168.29 29.23 168.29 23.4 180.66 23.4 180.66 17.76 162.18 17.76 162.18 45.61"/><polygon class="cls-1" points="191.48 17.76 185.41 17.76 185.41 45.61 203.85 45.61 203.85 39.94 191.48 39.94 191.48 17.76"/><polygon class="cls-1" points="207.16 45.61 225.64 45.61 225.64 39.94 213.27 39.94 213.27 34.1 224.9 34.1 224.9 29.23 213.27 29.23 213.27 23.4 225.64 23.4 225.64 17.76 207.16 17.76 207.16 45.61"/><path class="cls-1" d="M249.24,33.26A8.83,8.83,0,0,0,246,30.83a42.06,42.06,0,0,0-4.79-1.67,22.85,22.85,0,0,1-4.14-1.52,2.18,2.18,0,0,1-1.31-2,2.62,2.62,0,0,1,1.07-2.11,4.28,4.28,0,0,1,2.75-.85,4.47,4.47,0,0,1,2.7.84,3.17,3.17,0,0,1,1.27,2.5h6.57a7.68,7.68,0,0,0-1.58-4.74,9.54,9.54,0,0,0-3.93-3,12.84,12.84,0,0,0-5-1,13.29,13.29,0,0,0-5.53,1.11,9.19,9.19,0,0,0-3.83,3.07,7.64,7.64,0,0,0-1.38,4.5,6.43,6.43,0,0,0,1.34,4.22,8.74,8.74,0,0,0,3.19,2.43,41.27,41.27,0,0,0,4.73,1.67,24.37,24.37,0,0,1,4,1.48,2.05,2.05,0,0,1,1.24,1.87,2.51,2.51,0,0,1-1.19,2.14,5.14,5.14,0,0,1-3,.81,4.78,4.78,0,0,1-3-.89,2.88,2.88,0,0,1-1.17-2.41h-6.8A7.56,7.56,0,0,0,229.76,42a9.68,9.68,0,0,0,4.05,3.07,13.82,13.82,0,0,0,5.41,1.07A15,15,0,0,0,245.11,45a9.3,9.3,0,0,0,4-3.07,7.52,7.52,0,0,0,1.44-4.52A6.35,6.35,0,0,0,249.24,33.26Z"/><path class="cls-1" d="M41.1,0H0V8H41.1A14.73,14.73,0,0,1,55.76,21.55a25,25,0,0,1,7,8A22.72,22.72,0,0,0,41.1,0Z"/><path class="cls-1" d="M55.75,24.09A22.6,22.6,0,0,0,41.1,18.72H.51V45.43H41.1a22.57,22.57,0,0,0,12.71-3.9s0-.06,0-.1a12.64,12.64,0,0,0-2.77-7.9,14.66,14.66,0,0,1-9.95,3.9H8.51V26.72H41.1A14.71,14.71,0,0,1,55.75,40.06c0,.45.07.91.07,1.37A14.73,14.73,0,0,1,41.16,56.15l-28.92-.41L38.35,79.43H50.9L32.33,64.06l8.77.09A22.7,22.7,0,0,0,55.75,24.09Z"/></g></g></svg>